<?xml version="1.0" encoding="iso-8859-1"?>
<!-- Generator: Adobe Illustrator 21.1.0, SVG Export Plug-In . SVG Version: 6.00 Build 0)  -->
<svg version="1.1" id="customer-support-information-service-chat-listen"
	 xmlns="http://www.w3.org/2000/svg" xmlns:xlink="http://www.w3.org/1999/xlink" x="0px" y="0px" viewBox="0 0 96 96"
	 style="enable-background:new 0 0 96 96;" xml:space="preserve">
<linearGradient id="SVGID_1_" gradientUnits="userSpaceOnUse" x1="14.0589" y1="81.9411" x2="81.9411" y2="14.0589">
	<stop  offset="0" style="stop-color:#EECDA3"/>
	<stop  offset="0.5005" style="stop-color:#EF629F"/>
	<stop  offset="1" style="stop-color:#A046D6"/>
</linearGradient>
<circle style="fill:url(#SVGID_1_);" cx="48" cy="48" r="48"/>
<path style="fill:#FFFFFF;" d="M72,42h-3.043c-0.444-3.953-5.993-8-9.957-8h-2c-3.964,0-9.513,4.047-9.957,8H44
	c-0.552,0-1,0.447-1,1v6c0,0.553,0.448,1,1,1h4c0.552,0,1-0.447,1-1v-6c0-0.186-0.065-0.351-0.153-0.5H49c0-2.951,4.914-6.5,8-6.5h2
	c3.086,0,8,3.549,8,6.5V43v5.5c0,2.951-0.003,5.011-1.322,6.577c-1.102-1.349-2.435-2.457-3.926-3.177
	C63.701,50.655,65,48.479,65,46c0-3.859-3.14-7-7-7c-3.86,0-7,3.141-7,7c0,2.482,1.302,4.661,3.255,5.904
	c-1.483,0.721-2.862,1.853-4.028,3.319L49.995,52.9C49.944,52.39,49.514,52,49,52H19c-0.28,0-0.546,0.117-0.736,0.323
	c-0.189,0.205-0.284,0.481-0.261,0.76l2,24C20.047,77.602,20.48,78,21,78h40c0.308,0,0.599-0.142,0.788-0.385
	c0.189-0.242,0.257-0.559,0.182-0.857l-1-4C60.859,72.312,60.459,72,60,72h-8.095l-0.7-7H68c0.552,0,1-0.447,1-1
	c0-2.433-0.797-5.019-2.145-7.244c1.802-1.817,2.092-4.098,2.136-6.756H72c0.552,0,1-0.447,1-1v-6C73,42.447,72.552,42,72,42z
	 M47,48h-2v-4h2V48z M53,46c0-2.757,2.243-5,5-5c2.757,0,5,2.243,5,5s-2.243,5-5,5C55.243,51,53,48.757,53,46z M20.087,54h28.008
	l0.425,4.255c0,0,0,0.001,0,0.002l0.585,5.843v0l0.79,7.9H21.587L20.087,54z M59.219,74l0.5,2H21.92l-0.167-2H51H59.219z M51.005,63
	l-0.464-4.642C51.977,55.72,54.644,53,58,53c2.377,0,4.529,1.371,6.135,3.342c-0.389,0.23-0.828,0.449-1.33,0.658h-1.988
	c-0.414-1.161-1.514-2-2.816-2c-1.654,0-3,1.346-3,3s1.346,3,3,3c1.302,0,2.402-0.839,2.816-2H63c0.127,0,0.253-0.024,0.372-0.071
	c0.723-0.289,1.35-0.601,1.899-0.935c0.905,1.56,1.506,3.312,1.678,5.006H51.005z M59,58c0,0.552-0.449,1-1,1c-0.551,0-1-0.448-1-1
	s0.449-1,1-1C58.551,57,59,57.448,59,58z M71,48h-2v-4h2V48z"/>
<path style="fill:#FFFFFF;" d="M27,34h11.465l3.703,5.555C42.357,39.838,42.672,40,43,40c0.097,0,0.194-0.014,0.29-0.043
	C43.711,39.829,44,39.44,44,39v-5h7c0.552,0,1-0.447,1-1V19c0-0.553-0.448-1-1-1H27c-0.552,0-1,0.447-1,1v14
	C26,33.553,26.448,34,27,34z M28,20h22v12h-7c-0.552,0-1,0.447-1,1v2.697l-2.168-3.252C39.646,32.167,39.334,32,39,32H28V20z"/>
<rect x="34" y="25" style="fill:#FFFFFF;" width="2" height="2"/>
<rect x="38" y="25" style="fill:#FFFFFF;" width="2" height="2"/>
<rect x="42" y="25" style="fill:#FFFFFF;" width="2" height="2"/>
<path style="fill:#FFFFFF;" d="M68,32c1.654,0,3-1.346,3-3s-1.346-3-3-3c-1.654,0-3,1.346-3,3S66.346,32,68,32z M68,28
	c0.551,0,1,0.448,1,1s-0.449,1-1,1c-0.551,0-1-0.448-1-1S67.449,28,68,28z"/>
<rect x="72" y="20" style="fill:#FFFFFF;" width="2" height="2"/>
<rect x="74" y="18" style="fill:#FFFFFF;" width="2" height="2"/>
<rect x="76" y="20" style="fill:#FFFFFF;" width="2" height="2"/>
<rect x="74" y="22" style="fill:#FFFFFF;" width="2" height="2"/>
<path style="fill:#FFFFFF;" d="M31.03,61.242l1,4C32.141,65.688,32.541,66,33,66h5c0.308,0,0.599-0.142,0.788-0.385
	c0.189-0.242,0.257-0.559,0.182-0.857l-1-4C37.859,60.312,37.459,60,37,60h-5c-0.308,0-0.599,0.142-0.788,0.385
	C31.022,60.627,30.955,60.943,31.03,61.242z M36.219,62l0.5,2h-2.938l-0.5-2H36.219z"/>
</svg>
