<svg xmlns="http://www.w3.org/2000/svg" width="48" height="48" id="building"><path d="M24 0A24 24 0 0 0 0 24a24 24 0 0 0 24 24 24 24 0 0 0 24-24A24 24 0 0 0 24 0zM9.344 12.006a.41.41 0 0 1 .156 0h10c.262 0 .5.238.5.5v2a.52.52 0 0 1-.5.5H19v1h10v-1h-.5a.52.52 0 0 1-.5-.5v-2a.515.515 0 0 1 .344-.5.41.41 0 0 1 .156 0h10c.262 0 .5.238.5.5v2a.52.52 0 0 1-.5.5H38v17h1v1H9v-1h1v-17h-.5a.52.52 0 0 1-.5-.5v-2a.515.515 0 0 1 .344-.5zm.656 1v1h9v-1h-9zm19 0v1h9v-1h-9zm-18 2v17h5v-12h-1v1h-1v-1h.875a.516.516 0 0 1-.375-.5v-.5H14v-1h.5v-1H14v-1h4v-1h-7zm19 0v1h2.5a.517.517 0 0 1 .5.406v-.406h1v1h-1v1h1v1h-1v.5a.52.52 0 0 1-.5.5H32v12h5v-17h-7zm-18 1h1v1h-1v-1zm23 0h1v1h-1v-1zm-19.5 1v2H32v-2H15.5zm-3.5 1h1v1h-1v-1zm23 0h1v1h-1v-1zm-23 2h1v1h-1v-1zm5 0v12h3v-6.5a.515.515 0 0 1 .344-.5.41.41 0 0 1 .156 0h7c.262 0 .5.238.5.5v6.5h3v-12H17zm16 0h1v1h-1v-1zm2 0h1v1h-1v-1zm-23 2h1v1h-1v-1zm2 0h1v1h-1v-1zm19 0h1v1h-1v-1zm2 0h1v1h-1v-1zm-23 2h1v1h-1v-1zm2 0h1v1h-1v-1zm19 0h1v1h-1v-1zm2 0h1v1h-1v-1zm-23 2h1v1h-1v-1zm2 0h1v1h-1v-1zm7 0v6h2.5v-6H21zm3.5 0v6H27v-6h-2.5zm8.5 0h1v1h-1v-1zm2 0h1v1h-1v-1zm-23 2h1v1h-1v-1zm2 0h1v1h-1v-1zm19 0h1v1h-1v-1zm2 0h1v1h-1v-1zm-23 2h1v1h-1v-1zm2 0h1v1h-1v-1zm19 0h1v1h-1v-1zm2 0h1v1h-1v-1zm-16 4h10v1H19v-1zm-2 2h14v1H17v-1z"></path></svg>