<?xml version="1.0" encoding="utf-8"?>
<!-- Generator: Adobe Illustrator 26.2.1, SVG Export Plug-In . SVG Version: 6.00 Build 0)  -->
<svg version="1.1" id="Gradient" xmlns="http://www.w3.org/2000/svg" xmlns:xlink="http://www.w3.org/1999/xlink" x="0px" y="0px"
	 viewBox="0 0 512 512" enable-background="new 0 0 512 512" xml:space="preserve">
<linearGradient id="SVGID_1_" gradientUnits="userSpaceOnUse" x1="86.2947" y1="425.7053" x2="425.7053" y2="86.2947">
	<stop  offset="0" style="stop-color:#5EBCE5"/>
	<stop  offset="0.5075" style="stop-color:#B678E6"/>
	<stop  offset="1" style="stop-color:#E25B61"/>
</linearGradient>
<path fill="url(#SVGID_1_)" d="M425.705,86.294C380.376,40.964,320.106,16,256,16S131.624,40.964,86.295,86.294
	C40.965,131.625,16,191.894,16,256s24.965,124.375,70.295,169.706C131.624,471.036,191.894,496,256,496
	s124.376-24.964,169.705-70.294C471.035,380.375,496,320.106,496,256S471.035,131.625,425.705,86.294z M112,416H99.256
	c-0.548-0.537-1.104-1.064-1.647-1.608C72.885,389.669,54.665,360.179,43.78,328H112V416z M414.392,414.392
	C372.084,456.7,315.832,480,256,480c-46.373,0-90.589-14.006-127.836-40H168c4.418,0,8-3.582,8-8h0.234
	c9.438,0,18.668,1.777,27.432,5.283l11.379,4.551c10.229,4.091,21,6.166,32.017,6.166H312c13.233,0,24-10.767,24-24
	c0-4.276-1.124-8.294-3.092-11.774C339.574,407.957,344,400.486,344,392c0-6.141-2.318-11.751-6.126-16
	c3.808-4.249,6.126-9.859,6.126-16s-2.318-11.751-6.126-16c3.808-4.249,6.126-9.859,6.126-16c0-13.233-10.767-24-24-24h-36.666
	c-0.348,0-0.635-0.138-0.852-0.409c-0.218-0.271-0.289-0.58-0.214-0.92l6.89-31.004c2.176-9.79-0.207-19.866-6.537-27.646
	c-6.329-7.778-15.711-12.169-25.752-12.018c-8.796,0.123-16.597,5.88-19.412,14.326l-10.616,31.849
	c-5.562,16.685-18.927,29.266-35.86,33.822H176c0-4.418-3.582-8-8-8h-48c-4.418,0-8,3.582-8,8H39.03
	C34.398,293.925,32,275.148,32,256c0-59.833,23.3-116.084,65.608-158.392C139.916,55.3,196.168,32,256,32
	s116.084,23.3,158.392,65.608C456.7,139.916,480,196.167,480,256S456.7,372.084,414.392,414.392z M128,424V320h32v104H128z M176,328
	h16c0.654,0,1.306-0.08,1.94-0.239c22.704-5.676,40.678-22.32,48.08-44.523l10.616-31.849c0.666-1.998,2.457-3.359,4.456-3.388
	c0.08-0.001,0.159-0.001,0.238-0.001c5.024,0,9.707,2.222,12.879,6.12c3.224,3.961,4.437,9.091,3.329,14.076l-6.89,31.003
	c-1.131,5.087,0.09,10.337,3.352,14.402c3.261,4.066,8.121,6.398,13.333,6.398H320c4.411,0,8,3.589,8,8s-3.589,8-8,8
	c-4.418,0-8,3.582-8,8s3.582,8,8,8c4.411,0,8,3.589,8,8s-3.589,8-8,8c-4.418,0-8,3.582-8,8s3.582,8,8,8c4.411,0,8,3.589,8,8
	s-3.589,8-8,8h-8c-4.418,0-8,3.582-8,8s3.582,8,8,8c4.411,0,8,3.589,8,8s-3.589,8-8,8h-64.938c-8.972,0-17.744-1.689-26.074-5.021
	l-11.379-4.551c-10.662-4.265-21.891-6.427-33.374-6.427H176V328z M296.636,133.746l28.842-27.098
	c2.244-2.108,3.079-5.317,2.147-8.252c-0.933-2.935-3.466-5.074-6.516-5.501l-40.105-5.617l-17.883-34.923
	C261.752,49.681,259.003,48,256,48s-5.752,1.681-7.121,4.354l-17.883,34.923l-40.105,5.617c-3.05,0.427-5.583,2.566-6.516,5.501
	c-0.932,2.935-0.097,6.144,2.147,8.252l28.842,27.098l-6.794,38.187c-0.531,2.985,0.671,6.015,3.105,7.823s5.681,2.085,8.387,0.714
	L256,162.259l35.938,18.211c1.143,0.579,2.382,0.864,3.615,0.864c1.688,0,3.365-0.534,4.771-1.578
	c2.435-1.809,3.637-4.838,3.105-7.823L296.636,133.746z M282.522,125.051c-1.97,1.851-2.872,4.571-2.398,7.232l4.745,26.667
	l-25.253-12.796c-1.137-0.576-2.376-0.864-3.616-0.864s-2.479,0.288-3.616,0.864l-25.253,12.796l4.745-26.667
	c0.474-2.661-0.429-5.381-2.398-7.232l-19.827-18.628l27.682-3.877c2.581-0.362,4.823-1.957,6.012-4.277L256,73.552l12.656,24.717
	c1.188,2.32,3.431,3.915,6.012,4.277l27.682,3.877L282.522,125.051z M193.109,146.755l-23.522-3.294l-10.466-20.44
	c-1.369-2.673-4.118-4.354-7.121-4.354s-5.752,1.681-7.121,4.354l-10.466,20.44l-23.522,3.294c-3.05,0.427-5.583,2.566-6.516,5.501
	c-0.932,2.935-0.097,6.144,2.147,8.252l16.842,15.823l-3.962,22.267c-0.531,2.986,0.671,6.015,3.105,7.824
	c2.434,1.809,5.681,2.084,8.387,0.714L152,196.441l21.105,10.695c1.143,0.579,2.382,0.864,3.615,0.864
	c1.688,0,3.365-0.534,4.771-1.578c2.435-1.809,3.637-4.838,3.105-7.824l-3.962-22.267l16.842-15.823
	c2.244-2.108,3.079-5.317,2.147-8.252C198.692,149.321,196.159,147.182,193.109,146.755z M166.522,167.637
	c-1.97,1.851-2.872,4.571-2.398,7.232l1.912,10.748l-10.42-5.28c-1.137-0.576-2.377-0.864-3.616-0.864s-2.479,0.288-3.616,0.864
	l-10.42,5.28l1.912-10.748c0.474-2.661-0.429-5.381-2.398-7.232l-7.827-7.354l11.099-1.554c2.581-0.362,4.824-1.958,6.012-4.277
	L152,144.22l5.239,10.233c1.188,2.319,3.431,3.915,6.012,4.277l11.099,1.554L166.522,167.637z M129.109,220.088l-23.522-3.294
	l-10.466-20.439C93.752,193.681,91.003,192,88,192s-5.752,1.681-7.121,4.354l-10.466,20.439l-23.522,3.294
	c-3.05,0.427-5.583,2.566-6.516,5.501c-0.932,2.935-0.097,6.144,2.147,8.252l16.842,15.824l-3.962,22.267
	c-0.531,2.986,0.671,6.015,3.105,7.824s5.681,2.084,8.387,0.714L88,269.775l21.105,10.695c1.143,0.579,2.382,0.864,3.615,0.864
	c1.688,0,3.365-0.534,4.771-1.578c2.435-1.809,3.637-4.838,3.105-7.824l-3.962-22.267l16.842-15.824
	c2.244-2.108,3.079-5.318,2.147-8.252C134.692,222.654,132.159,220.515,129.109,220.088z M102.522,240.971
	c-1.97,1.851-2.872,4.571-2.398,7.232l1.912,10.748l-10.42-5.28c-1.137-0.576-2.377-0.864-3.616-0.864s-2.479,0.288-3.616,0.864
	l-10.42,5.28l1.912-10.748c0.474-2.661-0.429-5.381-2.398-7.232l-7.827-7.354l11.099-1.554c2.581-0.362,4.824-1.958,6.012-4.277
	L88,217.553l5.239,10.232c1.188,2.319,3.431,3.915,6.012,4.277l11.099,1.554L102.522,240.971z M384.721,208
	c1.688,0,3.365-0.534,4.771-1.578c2.435-1.809,3.637-4.838,3.105-7.824l-3.962-22.267l16.842-15.823
	c2.244-2.108,3.079-5.317,2.147-8.252c-0.933-2.935-3.466-5.074-6.516-5.501l-23.522-3.294l-10.466-20.44
	c-1.369-2.673-4.118-4.354-7.121-4.354s-5.752,1.681-7.121,4.354l-10.466,20.44l-23.522,3.294c-3.05,0.427-5.583,2.566-6.516,5.501
	c-0.932,2.935-0.097,6.144,2.147,8.252l16.842,15.823l-3.962,22.267c-0.531,2.986,0.671,6.015,3.105,7.824
	c2.434,1.809,5.682,2.084,8.387,0.714L360,196.441l21.105,10.695C382.248,207.715,383.487,208,384.721,208z M372.124,174.87
	l1.912,10.748l-10.42-5.28c-1.137-0.576-2.377-0.864-3.616-0.864s-2.479,0.288-3.616,0.864l-10.42,5.28l1.912-10.748
	c0.474-2.661-0.429-5.381-2.398-7.232l-7.827-7.354l11.099-1.554c2.581-0.362,4.824-1.958,6.012-4.277L360,144.22l5.239,10.233
	c1.188,2.319,3.431,3.915,6.012,4.277l11.099,1.554l-7.827,7.354C372.553,169.488,371.65,172.208,372.124,174.87z M471.625,225.589
	c-0.933-2.935-3.466-5.074-6.516-5.501l-23.522-3.294l-10.466-20.439C429.752,193.681,427.003,192,424,192s-5.752,1.681-7.121,4.354
	l-10.466,20.439l-23.522,3.294c-3.05,0.427-5.583,2.566-6.516,5.501c-0.932,2.935-0.097,6.144,2.147,8.252l16.842,15.824
	l-3.962,22.267c-0.531,2.986,0.671,6.015,3.105,7.824s5.681,2.084,8.387,0.714L424,269.775l21.105,10.695
	c1.143,0.579,2.382,0.864,3.615,0.864c1.688,0,3.365-0.534,4.771-1.578c2.435-1.809,3.637-4.838,3.105-7.824l-3.962-22.267
	l16.842-15.824C471.722,231.733,472.557,228.523,471.625,225.589z M438.522,240.971c-1.97,1.851-2.872,4.571-2.398,7.232
	l1.912,10.748l-10.42-5.28c-1.137-0.576-2.377-0.864-3.616-0.864s-2.479,0.288-3.616,0.864l-10.42,5.28l1.912-10.748
	c0.474-2.661-0.429-5.381-2.398-7.232l-7.827-7.354l11.099-1.554c2.581-0.362,4.824-1.958,6.012-4.277L424,217.553l5.239,10.232
	c1.188,2.319,3.431,3.915,6.012,4.277l11.099,1.554L438.522,240.971z"/>
</svg>
