<?xml version="1.0" encoding="UTF-8" standalone="no"?> <svg id="Layer_1" data-name="Layer 1" xmlns="http://www.w3.org/2000/svg" xmlns:xlink="http://www.w3.org/1999/xlink" viewBox="0 0 64 64"><defs><style>.cls-1{fill:url(#linear-gradient);}.cls-2{fill:url(#linear-gradient-2);}.cls-3{fill:url(#linear-gradient-3);}.cls-4{fill:url(#linear-gradient-4);}.cls-5{fill:url(#linear-gradient-5);}.cls-6{fill:url(#linear-gradient-7);}.cls-7{fill:url(#linear-gradient-8);}.cls-8{fill:url(#linear-gradient-9);}.cls-9{fill:url(#linear-gradient-10);}</style><linearGradient id="linear-gradient" x1="16.37" y1="16.13" x2="58.87" y2="58.63" gradientUnits="userSpaceOnUse"><stop offset="0" stop-color="#15b3ff"/><stop offset="1" stop-color="#e200e9"/></linearGradient><linearGradient id="linear-gradient-2" x1="15.1" y1="17.4" x2="57.6" y2="59.9" xlink:href="#linear-gradient"/><linearGradient id="linear-gradient-3" x1="15.39" y1="17.11" x2="57.89" y2="59.61" xlink:href="#linear-gradient"/><linearGradient id="linear-gradient-4" x1="15.69" y1="16.81" x2="58.19" y2="59.31" xlink:href="#linear-gradient"/><linearGradient id="linear-gradient-5" x1="15.98" y1="16.52" x2="58.48" y2="59.02" xlink:href="#linear-gradient"/><linearGradient id="linear-gradient-7" x1="28.39" y1="4.11" x2="70.89" y2="46.61" xlink:href="#linear-gradient"/><linearGradient id="linear-gradient-8" x1="25.91" y1="6.59" x2="68.41" y2="49.09" xlink:href="#linear-gradient"/><linearGradient id="linear-gradient-9" x1="4.35" y1="28.15" x2="46.85" y2="70.65" xlink:href="#linear-gradient"/><linearGradient id="linear-gradient-10" x1="6.82" y1="25.68" x2="49.32" y2="68.18" xlink:href="#linear-gradient"/></defs><title>surprise</title><path class="cls-1" d="M58,58.73a1,1,0,0,1-.42-.09L18.66,41a1,1,0,0,1-.29-1.61L39.58,18.13a1,1,0,0,1,.89-.28,1,1,0,0,1,.73.58L58.88,57.32a1,1,0,0,1-.21,1.12A1,1,0,0,1,58,58.73Zm-37.17-19L56,55.72,40,20.57Z"/><path class="cls-2" d="M19.08,41.05a1,1,0,0,1-.43-1.9L44.11,27.27A1,1,0,1,1,45,29.08L19.5,41A1.06,1.06,0,0,1,19.08,41.05Z"/><path class="cls-3" d="M28.08,45.15a1,1,0,0,1-.43-1.91l19.57-9.13a1,1,0,0,1,.85,1.81L28.5,45.05A.92.92,0,0,1,28.08,45.15Z"/><path class="cls-4" d="M37.09,49.24a1,1,0,0,1-.42-1.91L50.33,41a1,1,0,0,1,1.33.48,1,1,0,0,1-.48,1.33L37.51,49.15A1,1,0,0,1,37.09,49.24Z"/><path class="cls-5" d="M46.09,53.33a1,1,0,0,1-.42-1.9l7.77-3.63a1,1,0,1,1,.85,1.81l-7.77,3.63A1.07,1.07,0,0,1,46.09,53.33Z"/><path class="cls-1" d="M23.62,29.77a1,1,0,0,1-.89-.55l-1.8-3.54L17,26.3A1,1,0,0,1,16,25.77a1,1,0,0,1,.19-1.16L19,21.79l-1.81-3.54a1,1,0,0,1,.19-1.16,1,1,0,0,1,1.16-.18L22,18.71l2.81-2.81A1,1,0,0,1,26,15.72a1,1,0,0,1,.54,1l-.63,3.93,3.55,1.81a1,1,0,0,1,.53,1,1,1,0,0,1-.83.84L25.23,25l-.62,3.92a1,1,0,0,1-.83.83Zm-2.13-6.19a1,1,0,0,1,.89.54l.74,1.45.25-1.6a1,1,0,0,1,.83-.84l1.61-.25-1.45-.74a1,1,0,0,1-.53-1l.25-1.61-1.15,1.15a1,1,0,0,1-1.16.18l-1.45-.73.74,1.44a1,1,0,0,1-.18,1.16l-1.15,1.15,1.6-.25Z"/><path class="cls-6" d="M36.05,19.84a1.07,1.07,0,0,1-.25,0,1,1,0,0,1-.72-1.21l.2-.81a19.07,19.07,0,0,1,5-8.85,1,1,0,1,1,1.41,1.41,17.15,17.15,0,0,0-4.48,7.92l-.2.81A1,1,0,0,1,36.05,19.84Z"/><path class="cls-7" d="M30.39,19.84a1,1,0,0,1-1-.81l0-.13a16.81,16.81,0,0,1,3-13.39A1,1,0,0,1,34,6.71a14.85,14.85,0,0,0-2.68,11.8l0,.13a1,1,0,0,1-.79,1.18Z"/><path class="cls-8" d="M9.88,41.76a1,1,0,0,1-.7-1.71A19.07,19.07,0,0,1,18,35l.8-.2a1,1,0,1,1,.49,1.94l-.81.2a17,17,0,0,0-7.92,4.49A1,1,0,0,1,9.88,41.76Z"/><path class="cls-9" d="M6.35,34a1,1,0,0,1-.8-.4,1,1,0,0,1,.2-1.4,16.84,16.84,0,0,1,13.38-3l.14,0a1,1,0,0,1,.79,1.18,1,1,0,0,1-1.18.78l-.14,0A14.82,14.82,0,0,0,7,33.78,1,1,0,0,1,6.35,34Z"/></svg>